<svg viewBox="0 0 52 52" xmlns="http://www.w3.org/2000/svg"><path d="M42 42H10V10h32v32zm-30-2h28V12H12v28z"/><path d="M26 36.5h-7c-1.654 0-3-1.346-3-3v-7h2v7c0 .551.449 1 1 1h7v2zm10-10h-2v-7c0-.551-.449-1-1-1h-7.293v-2H33c1.654 0 3 1.346 3 3v7zm6-14h7v2h-7zm0 5h7v2h-7zm0 5h7v2h-7zm0 5h7v2h-7zm0 5h7v2h-7zm0 5h7v2h-7zm-39-25h7v2H3zm0 5h7v2H3zm0 5h7v2H3zm0 5h7v2H3zm0 5h7v2H3zm0 5h7v2H3zM37.5 3h2v7h-2zm-5 0h2v7h-2zm-5 0h2v7h-2zm-5 0h2v7h-2zm-5 0h2v7h-2zm-5 0h2v7h-2zm25 39h2v7h-2zm-5 0h2v7h-2zm-5 0h2v7h-2zm-5 0h2v7h-2zm-5 0h2v7h-2zm-5 0h2v7h-2zm.793-27.293l1.414-1.414 1.43 1.43-1.414 1.415zm22.57 22.57l1.414-1.414 1.43 1.43-1.414 1.414z"/></svg>