<svg height="640" viewBox="-96 0 480 480" width="640" xmlns="http://www.w3.org/2000/svg"><path d="M40 232h208v48H40zm0-80h208v48H40zm0-80h208v48H40zm128 264c0 13.254-10.746 24-24 24s-24-10.746-24-24 10.746-24 24-24 24 10.746 24 24zm0 0" fill="#78b9eb"/><g fill="#1a6fb0"><path d="M264 0H24C10.746 0 0 10.746 0 24v448a8 8 0 0 0 8 8h272a8 8 0 0 0 8-8V24c0-13.254-10.746-24-24-24zm8 464H16V24a8 8 0 0 1 8-8h240a8 8 0 0 1 8 8zm0 0"/><path d="M248 224H40a8 8 0 0 0-8 8v48a8 8 0 0 0 8 8h208a8 8 0 0 0 8-8v-48a8 8 0 0 0-8-8zm-8 48H48v-32h192zm8-128H40a8 8 0 0 0-8 8v48a8 8 0 0 0 8 8h208a8 8 0 0 0 8-8v-48a8 8 0 0 0-8-8zm-8 48H48v-32h192zm8-128H40a8 8 0 0 0-8 8v48a8 8 0 0 0 8 8h208a8 8 0 0 0 8-8V72a8 8 0 0 0-8-8zm-8 48H48V80h192zm0 0"/><path d="M56 168h176v16H56zm0-80h176v16H56zm0 160h176v16H56zM240 32h16v16h-16zm-24 0h16v16h-16zm-24 0h16v16h-16zm-48 272c-17.672 0-32 14.328-32 32s14.328 32 32 32 32-14.328 32-32-14.328-32-32-32zm0 48c-8.836 0-16-7.164-16-16s7.164-16 16-16 16 7.164 16 16-7.164 16-16 16zm-16 32h32v16h-32zm0 24h32v16h-32zm0 24h32v16h-32zm0 0"/></g></svg>