<svg height="640" viewBox="0 -128 480 480" width="640" xmlns="http://www.w3.org/2000/svg"><path d="M448 80c0 8.836-7.164 16-16 16s-16-7.164-16-16 7.164-16 16-16 16 7.164 16 16zM40 88h48v48H40zm72 0h48v48h-48zm72 0h48v48h-48zm72 0h48v48h-48zm72 0h48v48h-48zm0 0" fill="#78b9eb"/><g fill="#1a6fb0"><path d="M456 0H24C10.746 0 0 10.746 0 24v144c0 13.254 10.746 24 24 24h25.754l6.484 25.938A8.001 8.001 0 0 0 64 224h32c3.672 0 6.871-2.5 7.762-6.063L110.246 192h259.508l6.484 25.938A8.001 8.001 0 0 0 384 224h32c3.672 0 6.871-2.5 7.762-6.063L430.246 192H456c13.254 0 24-10.746 24-24V24c0-13.254-10.746-24-24-24zM89.754 208H70.246l-4-16h27.508zm320 0h-19.508l-4-16h27.508zM464 168a8 8 0 0 1-8 8H24a8 8 0 0 1-8-8V24a8 8 0 0 1 8-8h432a8 8 0 0 1 8 8zm0 0"/><path d="M416 32h32v16h-32zm16 24c-13.254 0-24 10.746-24 24s10.746 24 24 24 24-10.746 24-24-10.746-24-24-24zm0 32a8 8 0 1 1 0-16 8 8 0 0 1 0 16zM88 80H40a8 8 0 0 0-8 8v48a8 8 0 0 0 8 8h48a8 8 0 0 0 8-8V88a8 8 0 0 0-8-8zm-8 48H48V96h32zm80-48h-48a8 8 0 0 0-8 8v48a8 8 0 0 0 8 8h48a8 8 0 0 0 8-8V88a8 8 0 0 0-8-8zm-8 48h-32V96h32zm80-48h-48a8 8 0 0 0-8 8v48a8 8 0 0 0 8 8h48a8 8 0 0 0 8-8V88a8 8 0 0 0-8-8zm-8 48h-32V96h32zm80-48h-48a8 8 0 0 0-8 8v48a8 8 0 0 0 8 8h48a8 8 0 0 0 8-8V88a8 8 0 0 0-8-8zm-8 48h-32V96h32zm80-48h-48a8 8 0 0 0-8 8v48a8 8 0 0 0 8 8h48a8 8 0 0 0 8-8V88a8 8 0 0 0-8-8zm-8 48h-32V96h32zm0 0"/></g></svg>