<svg height="640" viewBox="-104 0 480 480" width="640" xmlns="http://www.w3.org/2000/svg"><path d="M136 152c-8.836 0-16 7.164-16 16v32c0 8.836 7.164 16 16 16s16-7.164 16-16v-32c0-8.836-7.164-16-16-16zm0 0" fill="#78b9eb"/><g fill="#1a6fb0"><path d="M144 80.406V68c0-15.465-12.535-28-28-28H28c-6.629 0-12-5.371-12-12s5.371-12 12-12h236V0H28C12.535 0 0 12.535 0 28s12.535 28 28 28h88c6.629 0 12 5.371 12 12v12.406C56.2 84.668.117 144.074 0 216v128c0 75.11 60.89 136 136 136s136-60.89 136-136V216c-.117-71.926-56.2-131.332-128-135.594zM256 344c0 66.273-53.727 120-120 120S16 410.273 16 344V216c0-66.273 53.727-120 120-120s120 53.727 120 120zm0 0"/><path d="M136 144c-13.254 0-24 10.746-24 24v32a24.003 24.003 0 0 0 16 22.527V264h16v-41.473A24.003 24.003 0 0 0 160 200v-32c0-13.254-10.746-24-24-24zm8 56a8 8 0 0 1-16 0v-32a8 8 0 0 1 16 0zm0 0"/></g></svg>