<svg height="640" viewBox="0 -19 480 479" width="640" xmlns="http://www.w3.org/2000/svg"><path d="M248 128.5h192v144H248zm-232-48h32v64H16zm0 88h32v64H16zm64-80h80v48H80zm0 88h80v48H80zm0 88h80v48H80zm0 0" fill="#78b9eb"/><g fill="#1a6fb0"><path d="M456 48.5H56v-40a8 8 0 0 0-8-8H0v16h40v56H16a8 8 0 0 0-8 8v64a8 8 0 0 0 8 8h24v8H16a8 8 0 0 0-8 8v64a8 8 0 0 0 8 8h24v200h16v-88h400c13.254 0 24-10.746 24-24v-256c0-13.254-10.746-24-24-24zm-432 88v-48h16v48zm0 88v-48h16v48zm440 104a8 8 0 0 1-8 8H56v-272h400a8 8 0 0 1 8 8zm0 0"/><path d="M440 120.5H248a8 8 0 0 0-8 8v144a8 8 0 0 0 8 8h192a8 8 0 0 0 8-8v-144a8 8 0 0 0-8-8zm-8 144H256v-128h176zm0 0"/><path d="M288 248.5h24v-48a8 8 0 0 0-8-8h-16v16h8v24h-8a8 8 0 0 1-8-8v-48a8 8 0 0 1 8-8h24v-16h-24c-13.254 0-24 10.746-24 24v48c0 13.254 10.746 24 24 24zm112 0c13.254 0 24-10.746 24-24v-72h-16v72a8 8 0 0 1-16 0v-72h-16v72c0 13.254 10.746 24 24 24zm-64-40h24a8 8 0 0 0 8-8v-40a8 8 0 0 0-8-8h-32a8 8 0 0 0-8 8v88h16zm0-40h16v24h-16zm-176-88H80a8 8 0 0 0-8 8v48a8 8 0 0 0 8 8h80a8 8 0 0 0 8-8v-48a8 8 0 0 0-8-8zm-8 48H88v-32h64zm8 40H80a8 8 0 0 0-8 8v48a8 8 0 0 0 8 8h80a8 8 0 0 0 8-8v-48a8 8 0 0 0-8-8zm-8 48H88v-32h64zm8 40H80a8 8 0 0 0-8 8v48a8 8 0 0 0 8 8h80a8 8 0 0 0 8-8v-48a8 8 0 0 0-8-8zm-8 48H88v-32h64zm24-216h16v32h-16zm0 48h16v32h-16zm0 48h16v32h-16zm0 48h16v32h-16zm0 48h16v32h-16zm0 0"/><path d="M104 104.5h32v16h-32zm0 88h32v16h-32zm0 88h32v16h-32zm96-200h16v16h-16zm0 32h16v16h-16zm0 32h16v16h-16zm0 32h16v16h-16zm0 32h16v16h-16zm0 32h16v16h-16zm0 32h16v16h-16zm0 32h16v16h-16zm0 0"/></g></svg>