<svg height="640" viewBox="-116 0 480 480" width="640" xmlns="http://www.w3.org/2000/svg"><path d="M136 376h-32v32h32zm64-352c0-8.836-7.164-16-16-16s-16 7.164-16 16v104h32zM72 24c0-8.836-7.164-16-16-16s-16 7.164-16 16v104h32zm104 184h-56l48-48H88l-24 48h32l-24 32h40l-24 72zm0 0" fill="#78b9eb"/><path d="M40 464a8 8 0 0 1 0-16h64c13.254 0 24-10.746 24-24v-8h8a8 8 0 0 0 8-8v-24h16a8 8 0 0 0 8-8v-24h48c13.254 0 24-10.746 24-24V144c0-13.254-10.746-24-24-24h-8V24c0-13.254-10.746-24-24-24s-24 10.746-24 24v96H80V24C80 10.746 69.254 0 56 0S32 10.746 32 24v96h-8c-13.254 0-24 10.746-24 24v184c0 13.254 10.746 24 24 24h48v24a8 8 0 0 0 8 8h16v24a8 8 0 0 0 8 8h8v8a8 8 0 0 1-8 8H40c-13.254 0-24 10.746-24 24s10.746 24 24 24h208v-16zM176 24a8 8 0 0 1 16 0v96h-16zM48 24a8 8 0 0 1 16 0v96H48zM16 328V144a8 8 0 0 1 8-8h192a8 8 0 0 1 8 8v184a8 8 0 0 1-8 8H24a8 8 0 0 1-8-8zm72 24h64v16H88zm40 32v16h-16v-16zm0 0" fill="#1a6fb0"/><path d="M80.406 309.473a8.002 8.002 0 0 0 13.7 7.695l88-104a7.994 7.994 0 0 0 1.148-8.531A7.993 7.993 0 0 0 176 200h-36.688l34.344-34.344A8 8 0 0 0 168 152H88a8.001 8.001 0 0 0-7.16 4.426l-24 48A8.001 8.001 0 0 0 64 216h16l-14.398 19.2A7.997 7.997 0 0 0 72 248h28.902zM88 232l14.398-19.2A7.997 7.997 0 0 0 96 200H76.945l16-32h55.743l-34.344 34.344c-2.285 2.289-2.973 5.73-1.735 8.718S116.766 216 120 216h38.754l-50.027 59.121 10.867-32.594A8.002 8.002 0 0 0 112 232zm0 0" fill="#1a6fb0"/></svg>