<svg height="640" viewBox="0 -80 480 480" width="640" xmlns="http://www.w3.org/2000/svg"><path d="M40 40h32v192H40zm56 0h32v192H96zm56 0h32v192h-32zm96 32h192v144H248zM72 272c0 8.836-7.164 16-16 16s-16-7.164-16-16 7.164-16 16-16 16 7.164 16 16zm56 0c0 8.836-7.164 16-16 16s-16-7.164-16-16 7.164-16 16-16 16 7.164 16 16zm56 0c0 8.836-7.164 16-16 16s-16-7.164-16-16 7.164-16 16-16 16 7.164 16 16zm144-16c0 8.836-7.164 16-16 16s-16-7.164-16-16 7.164-16 16-16 16 7.164 16 16zm56 0c0 8.836-7.164 16-16 16s-16-7.164-16-16 7.164-16 16-16 16 7.164 16 16zm56 0c0 8.836-7.164 16-16 16s-16-7.164-16-16 7.164-16 16-16 16 7.164 16 16zm-224-16h48v48h-48zm0 0" fill="#78b9eb"/><g fill="#1a6fb0"><path d="M472 0H8a8 8 0 0 0-8 8v304a8 8 0 0 0 8 8h464a8 8 0 0 0 8-8V8a8 8 0 0 0-8-8zm-8 304H16V16h448zm0 0"/><path d="M40 240h32a8 8 0 0 0 8-8V40a8 8 0 0 0-8-8H40a8 8 0 0 0-8 8v192a8 8 0 0 0 8 8zm8-192h16v176H48zm48 192h32a8 8 0 0 0 8-8V40a8 8 0 0 0-8-8H96a8 8 0 0 0-8 8v192a8 8 0 0 0 8 8zm8-192h16v176h-16zm48 192h32a8 8 0 0 0 8-8V40a8 8 0 0 0-8-8h-32a8 8 0 0 0-8 8v192a8 8 0 0 0 8 8zm8-192h16v176h-16zm80 168a8 8 0 0 0 8 8h192a8 8 0 0 0 8-8V72a8 8 0 0 0-8-8H248a8 8 0 0 0-8 8zm16-136h176v128H256zm-32-32h16V32h-32v32h16zm-16 24h16v32h-16zm0 40h16v32h-16zm0 40h16v32h-16zm0 40h16v32h-16zm48-160h32v16h-32zm40 0h32v16h-32zm40 0h32v16h-32zm40 0h32v16h-32zm40 0h32v16h-32zM56 296c13.254 0 24-10.746 24-24s-10.746-24-24-24-24 10.746-24 24 10.746 24 24 24zm0-32a8 8 0 1 1 0 16 8 8 0 0 1 0-16zm56 32c13.254 0 24-10.746 24-24s-10.746-24-24-24-24 10.746-24 24 10.746 24 24 24zm0-32a8 8 0 1 1 0 16 8 8 0 0 1 0-16zm56 32c13.254 0 24-10.746 24-24s-10.746-24-24-24-24 10.746-24 24 10.746 24 24 24zm0-32a8 8 0 1 1 0 16 8 8 0 0 1 0-16zm144-32c-13.254 0-24 10.746-24 24s10.746 24 24 24 24-10.746 24-24-10.746-24-24-24zm0 32a8 8 0 1 1 0-16 8 8 0 0 1 0 16zm56-32c-13.254 0-24 10.746-24 24s10.746 24 24 24 24-10.746 24-24-10.746-24-24-24zm0 32a8 8 0 1 1 0-16 8 8 0 0 1 0 16zm56-32c-13.254 0-24 10.746-24 24s10.746 24 24 24 24-10.746 24-24-10.746-24-24-24zm0 32a8 8 0 1 1 0-16 8 8 0 0 1 0 16zm-208 32h48a8 8 0 0 0 8-8v-48a8 8 0 0 0-8-8h-48a8 8 0 0 0-8 8v48a8 8 0 0 0 8 8zm8-48h32v32h-32zm0 0"/><path d="M264 120v48c0 13.254 10.746 24 24 24h24v-16h-24a8 8 0 0 1-8-8v-48a8 8 0 0 1 8-8h24V96h-24c-13.254 0-24 10.746-24 24zm144 48a8 8 0 0 1-16 0V96h-16v72c0 13.254 10.746 24 24 24s24-10.746 24-24V96h-16zm-48-72h-32a8 8 0 0 0-8 8v88h16v-40h24a8 8 0 0 0 8-8v-40a8 8 0 0 0-8-8zm-8 40h-16v-24h16zm0 0"/></g></svg>