<svg xmlns="http://www.w3.org/2000/svg" viewBox="0 0 1000 1000"><path d="M538.09 72.97c-5.36 5.55-5.55 6.13-5.55 24.88v19.33h-15.32v-9.57c0-12.06-3.83-19.71-11.48-22.97-12.63-5.17-22.97 4.98-22.97 22.97v9.57h-15.32v-11.29c0-9.19-.96-12.44-4.21-16.27-6.7-7.46-14.93-8.23-22.2-2.11-5.36 4.4-5.93 6.32-6.51 16.84l-.57 11.87H293.28c-77.33 0-170.73.19-207.29.57l-66.61.38-4.59 4.79-4.79 4.59v794.93l5.55 5.55 5.55 5.55h957.8l5.55-5.55 5.55-5.55V126.57l-4.79-4.59c-4.21-4.4-5.93-4.79-23.93-4.79h-19.14v-8.42c0-17.61-8.61-27.75-21.25-25.07-8.81 1.91-13.21 9.19-13.21 22.2v11.29h-15.32V97.86c0-18.76-.19-19.33-5.55-24.88l-5.55-5.55H543.64l-5.55 5.54zm59.53 34.65v7.66h-32.54V99.96h32.54v7.66zm65.08 0v7.66h-30.62V99.96h30.62v7.66zm65.07 0v7.66h-30.62V99.96h30.62v7.66zm65.08 0v7.66h-30.62V99.96h30.62v7.66zm66.99 0v7.66H827.3V99.96h32.54v7.66zM140.16 280.84c0 97.43.57 132.26 2.3 135.9 3.06 6.7 10.91 10.53 21.63 10.53h8.61v10.71c0 9.19.77 11.29 5.55 16.27 12.82 12.82 28.9 2.68 28.9-18.38v-8.61h7.46c9.57 0 18.95-3.44 21.25-7.66 1.15-2.3 1.91-53.59 1.91-136.66V149.72h34.46v181.65c0 99.91.57 183.17 1.15 184.9 1.91 4.59 11.1 8.61 20.48 8.61h8.61l.77 11.87c.77 9.76 1.72 12.44 6.12 16.27 7.27 6.13 15.31 5.74 22.39-1.15 4.79-4.79 5.55-7.08 5.55-16.08v-10.53l11.48-.77c8.61-.57 12.63-1.91 15.89-4.98l4.21-4.4.57-182.6.38-182.79h587.62v750.32H42.54v-15.32h17.23c19.52 0 27.75-2.87 30.63-10.72 3.06-8.04 2.3-12.25-3.64-18.18-5.55-5.36-6.13-5.55-24.88-5.55H42.54v-15.32h19.33c18.76 0 19.33-.19 24.88-5.55 6.32-6.32 6.89-11.1 2.68-19.33-3.44-6.7-6.13-7.47-28.71-8.23l-17.23-.38v-15.32l17.23-.38c22.59-.76 25.27-1.53 28.71-8.23 4.21-8.23 3.64-13.02-2.68-19.33-5.55-5.36-6.13-5.55-24.88-5.55H42.54v-15.32h19.33c18.76 0 19.33-.19 24.88-5.55 5.93-5.93 6.7-10.14 3.64-18.18-2.87-7.85-11.1-10.72-30.63-10.72H42.54v-15.32h19.71c20.29-.19 23.74-1.15 27.75-9 3.45-6.32 2.68-11.29-2.68-17.61-4.98-5.93-4.98-5.93-24.88-5.93h-19.9v-325.4h17.23c19.52 0 27.75-2.87 30.63-10.72 3.06-8.04 2.3-12.25-3.64-18.18-5.55-5.36-6.13-5.55-24.88-5.55H42.54v-15.32h19.33c18.76 0 19.33-.19 24.88-5.55 6.12-6.32 6.89-11.1 2.68-19.14-3.64-7.27-5.74-7.85-27.95-7.85H42.54v-15.32h16.08c19.33 0 27.18-2.49 30.82-9.76 4.21-8.04 3.44-12.82-2.68-19.14-5.55-5.36-6.13-5.55-24.88-5.55H42.54v-47.86h97.62v131.16zm65.07-8.8v122.3l-15.7-.38-15.89-.19-.57-122.12-.38-121.93h32.54v122.32zm131.69 48.42l-.57 170.93-15.7.38-15.89.38V149.72h32.54l-.38 170.74z"/><path d="M560.29 185.9c-9.76 4.4-22.59 18.76-25.46 28.52-3.25 10.72-3.25 282.9 0 293.62 2.87 9.76 15.7 24.12 25.46 28.52 7.27 3.25 16.08 3.64 151.79 3.64 117.91 0 145.28-.38 150.45-2.68 8.8-3.64 19.91-13.78 24.69-22.97l4.21-7.85.57-143.17c.38-142.6.38-142.98-3.64-152.55-4.4-10.53-15.7-21.82-25.84-26.03-5.36-2.3-31.01-2.68-150.45-2.68-135.7 0-144.5.38-151.78 3.63zm91.3 33.31c-3.83 4.02-4.21 6.51-4.21 23.74v19.33l-11.48.77c-16.27 1.15-21.05 5.93-21.05 21.05v11.1h-19.33c-18.76 0-19.33.19-24.88 5.55l-5.55 5.55v-41.92c0-25.46.77-43.64 1.91-45.94 1.91-3.45 4.59-3.64 45.36-3.64h43.26l-4.03 4.41zm51.68-3.06c-5.36 2.1-8.04 11.87-8.04 29.28v17.23h-15.32v-19.14c0-17.99-.38-19.71-4.79-23.93l-4.59-4.79 17.61.19c9.77.01 16.47.58 15.13 1.16zm46.52 3.44c-4.4 4.21-4.79 5.93-4.79 23.93v19.14h-15.32v-17.99c0-16.65-.38-18.57-4.98-23.93l-4.98-5.93h34.65l-4.58 4.78zm108.14-1.15c1.15 2.3 1.91 20.48 1.91 45.94v41.92l-5.55-5.55c-5.55-5.36-6.12-5.55-24.88-5.55h-19.33v-10.34c0-15.31-5.17-20.67-20.67-21.82l-11.87-.77v-18.76c0-15.89-.57-19.33-4.02-23.73l-3.83-4.98h43.07c40.77 0 43.26.2 45.17 3.64zm-80.39 142.79v65.65H647.38v-131.3h130.16v65.65zm-182.98-31.96l20.29.77v14.92h-20.1c-18.95 0-20.48.38-24.88 4.79l-4.79 4.59v-36.36l4.59 5.36c4.4 5.16 5.36 5.35 24.89 5.93zm265.28 7.27v18.56l-4.98-5.17c-4.79-4.79-6.13-4.98-24.88-4.98h-19.91v-14.92l20.29-.77c19.33-.57 20.48-.77 24.31-5.74 2.3-2.87 4.4-5.17 4.79-5.17.19-.19.38 8.04.38 18.19zM594.75 377.5h20.1v14.92l-20.29.77c-19.52.57-20.48.77-24.88 5.93l-4.59 5.36v-36.36l4.79 4.59c4.39 4.41 5.92 4.79 24.87 4.79zm265.09 8.8v18.19l-4.59-5.36c-4.4-5.17-5.36-5.36-24.88-5.93l-20.29-.77V377.5h19.91c18.76 0 20.1-.19 24.31-4.79 2.49-2.49 4.79-4.79 5.17-4.79.18.01.37 8.24.37 18.38zm-264.33 40.97h19.33v11.1c0 15.12 4.79 19.91 21.05 21.05l11.48.77v19.33c0 17.23.38 19.72 4.21 23.73l4.02 4.4h-43.26c-40.77 0-43.45-.19-45.36-3.64-1.15-2.3-1.91-20.48-1.91-45.94v-41.92l5.55 5.55c5.56 5.37 6.13 5.57 24.89 5.57zm262.42 76.56c-1.91 3.64-4.21 3.83-45.17 3.83h-43.07l3.83-4.98c3.44-4.4 4.02-7.85 4.02-23.74v-18.76l11.87-.77c15.5-1.15 20.67-6.51 20.67-21.82v-10.34h19.33c18.38 0 19.33-.19 24.31-5.36l5.17-5.17.57 41.73c.19 26.62-.19 43.08-1.53 45.38zm-162.7-26.8c0 17.42 2.68 27.18 8.04 29.29 1.34.57-5.36 1.15-15.12 1.15l-17.61.19 4.59-4.79c4.4-4.21 4.79-5.93 4.79-23.93V459.8h15.32v17.23zm49.77 1.92c0 17.99.38 19.71 4.79 23.93l4.59 4.79h-34.65l4.98-5.93c4.59-5.36 4.98-7.27 4.98-23.93V459.8h15.32v19.15zM459.61 265.53c-14.55 7.85-8.81 29.67 7.85 29.67 8.8 0 15.31-6.32 15.31-14.74 0-8.61-1.72-11.87-7.85-14.93-6.5-3.45-8.99-3.45-15.31 0zm-46.89 31.58c-15.89 6.51-12.06 30.63 4.98 30.63 9.19 0 15.12-4.79 16.46-13.59 1.91-11.68-10.72-21.63-21.44-17.04zm504.36.96c-7.28 4.02-10.53 12.82-7.47 20.1 6.7 16.08 30.63 11.48 30.63-5.93-.01-11.88-13.02-19.72-23.16-14.17zm-460.34 18.95c-11.1 9.38-3.83 27.95 10.91 27.95 8.23 0 15.12-7.46 15.12-16.27 0-14.17-15.31-21.06-26.03-11.68zm-50.34 50.14c-4.79 6.12-5.17 13.59-.96 19.52 10.14 14.55 32.35 4.02 28.52-13.4-2.67-11.48-20.28-15.49-27.56-6.12zm50.92-2.68c-9.38 7.27-6.89 24.12 4.21 27.94 6.89 2.49 10.72 1.53 17.03-4.02 5.93-5.36 5.74-16.46-.19-22.01-4.98-4.78-15.89-5.73-21.05-1.91zm-.58 50.15c-15.89 13.4 4.59 36.75 21.05 23.93 3.83-3.06 4.98-5.55 4.98-11.48 0-14.94-14.93-22.21-26.03-12.45zm457.46 0c-11.1 9.38-3.83 27.95 10.91 27.95 8.23 0 15.12-7.46 15.12-16.27 0-14.17-15.31-21.06-26.03-11.68zM68.38 444.88c-9.95 5.36-11.87 17.61-3.83 25.46 5.93 6.13 14.36 6.13 21.25.19 13.97-11.87-1.34-34.65-17.42-25.65zm388.17 19.14c-5.74 6.51-6.89 12.06-3.64 18.37 4.02 7.85 12.63 11.1 20.29 8.04 7.08-2.87 9.57-7.08 9.57-15.89 0-13.2-17.41-20.09-26.22-10.52zM64.74 496.36c-3.64 2.87-4.98 5.74-4.98 10.34 0 9 1.53 12.25 8.04 15.5 11.1 5.74 23.35-1.34 23.35-13.59.01-13.97-15.31-21.05-26.41-12.25zm64.89.77l-4.79 4.59v46.7c0 44.41.19 47.09 4.02 51.87l3.83 4.98h48.43c47.66 0 48.43 0 52.44-4.4 3.83-4.02 4.02-6.13 4.4-52.06l.19-47.66-4.98-4.4c-5.17-4.4-5.93-4.4-52.06-4.4h-46.89l-4.59 4.78zm75.6 51.68v23.93h-47.86v-47.86h47.86v23.93zm255.15-39.24c-5.55 2.3-10.72 12.44-9 17.8 2.3 7.85 8.61 12.82 16.08 12.82 8.8 0 15.31-6.32 15.31-14.74 0-8.61-1.72-11.87-7.85-14.93-6.12-3.25-8.42-3.44-14.54-.95zm-392 32.92c-6.13 3.25-8.61 7.46-8.61 14.93 0 18.95 25.84 20.86 31.39 2.49 1.72-5.55-3.06-14.55-9.38-17.42-6.13-2.87-8.42-2.87-13.4 0zm376.88 32.16c-6.89 2.68-10.34 9.57-10.34 20.48v10.14h-9.57c-10.53 0-19.91 3.83-21.82 8.61-5.36 14.36 3.83 25.84 21.05 25.84h10.34v30.62h-10.34c-17.23 0-26.41 11.48-21.05 25.84 1.91 4.79 11.29 8.61 21.82 8.61h9.57v30.24l-11.48.77c-8.61.57-12.63 1.91-16.27 5.36-4.79 4.4-6.32 13.02-3.64 20.1 1.91 4.79 11.29 8.61 21.82 8.61h9.76l-.57 15.7-.57 15.89-11.48.57c-14.55.77-20.1 5.17-20.1 16.08 0 11.68 6.32 16.84 21.05 16.84h11.48v10.91c.19 11.68 1.91 15.7 9 19.33 3.06 1.72 59.72 2.3 220.69 2.3h216.67l5.55-5.55c4.79-4.98 5.55-7.08 5.55-16.27v-10.72h10.72c9.19 0 11.29-.77 16.27-5.55 7.08-7.27 7.47-15.69.77-22.2-3.83-4.02-6.51-4.79-16.27-4.79h-11.48v-32.54h10.71c9.19 0 11.29-.77 16.27-5.55 6.89-7.08 7.28-15.12 1.15-22.39-3.83-4.4-6.51-5.36-16.27-6.13l-11.87-.77v-30.24h10.72c9.19 0 11.29-.77 16.27-5.55 6.89-7.08 7.28-15.12 1.15-22.39-3.83-4.4-6.51-5.36-16.27-6.13l-11.87-.77v-29.86l11.87-.77c9.76-.76 12.44-1.72 16.27-6.13 6.13-7.27 5.74-15.31-1.15-22.39-4.79-4.79-7.08-5.55-16.08-5.55h-10.53l-.77-11.48c-.57-8.61-1.91-12.63-4.98-15.89l-4.4-4.21-216.67-.38c-119.62-.17-218.58.4-220.68 1.36zm37.51 46.89v16.27h-15.32v-32.54h15.32v16.27zm327.31 0v16.27H517.23v-32.54h292.86v16.27zm49.19.39l.38 15.89h-17.03v-14.93c0-8.23.57-15.7 1.34-16.46.76-.76 4.4-1.15 8.23-.76l6.7.57.38 15.69zm-376.5 65.65v15.31h-15.32v-30.62h15.32v15.31zm327.31 0v15.31H517.23v-30.62h292.86v15.31zm49.38 0v15.31h-16.84v-30.62h16.84v15.31zm-376.69 65.08v15.31h-15.32v-30.62h15.32v15.31zm327.31 0v15.31H517.23v-30.62h292.86v15.31zm49.38 0v15.31h-16.84v-30.62h16.84v15.31zm-376.69 66.03v16.27h-15.32v-32.54h15.32v16.27zm327.31 0v16.27H517.23v-32.54h292.86v16.27zm49.38 0v16.27h-16.84v-32.54h16.84v16.27zM215.38 640.68c-12.44 5.17-11.67 24.88 1.15 29.29 10.91 3.83 21.25-3.64 21.25-14.93-.01-11.87-11.3-18.95-22.4-14.36zm51.68-1.34c-2.49.38-6.12 2.87-8.23 5.55-8.61 10.91-1.34 25.84 12.44 25.84 5.74 0 8.61-1.15 11.87-5.17 10.52-12.24.38-28.7-16.08-26.22zm49.19-.19c-15.5 5.74-15.12 26.22.57 31.77 1.91.77 6.32.19 9.76-1.34 13.4-5.55 13.21-23.54 0-29.09-3.64-1.53-6.7-2.68-6.89-2.49-.38 0-1.91.58-3.44 1.15zm-103.74 68.34c-4.4 3.25-7.27 11.29-7.27 20.48 0 7.47 0 7.47-7.66 7.47-21.82 0-32.35 15.89-19.33 28.9 4.98 4.79 7.08 5.55 16.27 5.55h10.72v15.32h-10.72c-9.19 0-11.29.77-16.27 5.55-6.12 6.32-6.89 11.1-2.68 19.14 3.06 6.12 11.29 9.76 22.01 9.76h7.27l.77 10.53c.57 7.66 2.1 11.87 5.36 15.31l4.4 4.79h111.78l4.4-4.79c3.25-3.45 4.79-7.66 5.36-15.31l.77-10.53h7.66c21.44 0 31.77-15.89 18.95-28.9-4.98-4.79-7.08-5.55-16.27-5.55H337.3v-15.32h10.72c9.19 0 11.29-.77 16.27-5.55 13.02-13.01 2.49-28.9-19.33-28.9-7.66 0-7.66 0-7.66-7.47 0-9.57-3.44-18.95-7.66-21.25-5.73-3.06-113.11-2.3-117.13.77zm91.68 70.05v40.2h-66.03l.19-40.2v-40.2h65.84v40.2z"/></svg>