<svg xmlns="http://www.w3.org/2000/svg" viewBox="0 0 262.309 262.309"><path d="M259.809 84.362H2.5a2.5 2.5 0 0 0-2.5 2.5v24.5a2.5 2.5 0 0 0 2.5 2.5h10.761c3.033 0 5.5 2.468 5.5 5.5s-2.467 5.5-5.5 5.5H2.5a2.5 2.5 0 0 0-2.5 2.5v9.502a2.5 2.5 0 0 0 2.5 2.5h10.761c3.033 0 5.5 2.468 5.5 5.5s-2.467 5.5-5.5 5.5H2.5a2.5 2.5 0 0 0-2.5 2.5v11.998a2.5 2.5 0 0 0 2.5 2.5v10.584h122.827v-10.584h11.654v10.584h122.827v-10.584a2.5 2.5 0 0 0 2.5-2.5v-11.998a2.5 2.5 0 0 0-2.5-2.5h-10.761a5.506 5.506 0 0 1-5.5-5.5c0-3.032 2.467-5.5 5.5-5.5h10.761a2.5 2.5 0 0 0 2.5-2.5v-9.502a2.5 2.5 0 0 0-2.5-2.5h-10.761a5.506 5.506 0 0 1-5.5-5.5c0-3.032 2.467-5.5 5.5-5.5h10.761a2.5 2.5 0 0 0 2.5-2.5v-24.5a2.499 2.499 0 0 0-2.499-2.5zm-241.83 89.5h-6.123v-9h6.123v9zm226.351-9h6.125v9h-6.125v-9zm-214.101 9h-6.125v-9h6.125v9zm12.249 0h-6.124v-9h6.124v9zm12.249 0h-6.125v-9h6.125v9zm12.249 0h-6.125v-9h6.125v9zm12.248 0H73.1v-9h6.124v9zm12.249 0h-6.124v-9h6.124v9zm12.249 0h-6.124v-9h6.124v9zm12.249 0h-6.124v-9h6.124v9zm-79.026-28.333v-42.917h188.418v42.917H36.945zm115.519 28.333h-6.125v-9h6.125v9zm12.249 0h-6.125v-9h6.125v9zm12.249 0h-6.125v-9h6.125v9zm12.249 0h-6.125v-9h6.125v9zm12.249 0h-6.125v-9h6.125v9zm12.249 0h-6.125v-9h6.125v9zm12.248 0h-6.125v-9h6.125v9zm12.248 0h-6.123v-9h6.123v9zm-60.432-49.566h10.592v15.043h-4.698v-3.297c-2.336 2.335-5.056 3.503-8.161 3.503-1.923 0-3.729-.385-5.419-1.154a13.67 13.67 0 0 1-4.41-3.173c-1.251-1.347-2.239-2.933-2.968-4.761-.729-1.827-1.092-3.798-1.092-5.914 0-2.006.363-3.895 1.092-5.667a14.756 14.756 0 0 1 3.01-4.657 14.415 14.415 0 0 1 4.512-3.174c1.731-.783 3.613-1.175 5.646-1.175 2.748 0 5.104.577 7.068 1.731 1.965 1.154 3.441 2.707 4.431 4.657l-4.245 3.132c-.742-1.455-1.779-2.568-3.111-3.338a8.55 8.55 0 0 0-4.348-1.154c-1.236 0-2.371.262-3.4.783a7.956 7.956 0 0 0-2.639 2.144 10.122 10.122 0 0 0-1.689 3.132 11.675 11.675 0 0 0-.598 3.751c0 1.374.22 2.658.66 3.853.439 1.195 1.043 2.232 1.813 3.111a8.49 8.49 0 0 0 2.741 2.081c1.058.509 2.205.763 3.441.763 2.829 0 5.385-1.332 7.666-3.998v-2.061h-5.894v-4.161zm33.589.041c1.374-.604 2.417-1.531 3.132-2.782a7.96 7.96 0 0 0 1.072-4.019c0-.906-.158-1.806-.475-2.699a7.836 7.836 0 0 0-1.339-2.391 6.89 6.89 0 0 0-2.103-1.71c-.824-.439-1.744-.66-2.761-.66h-15.661v29.263h14.137a13.09 13.09 0 0 0 3.646-.494c1.141-.33 2.144-.811 3.01-1.443a6.817 6.817 0 0 0 2.039-2.349c.495-.934.742-2.02.742-3.256 0-1.923-.488-3.524-1.463-4.802-.975-1.277-2.3-2.164-3.976-2.658zm-12.446-9.398h7.83c.907 0 1.67.33 2.287.989.619.66.928 1.553.928 2.68 0 1.153-.336 2.061-1.01 2.72-.674.659-1.49.989-2.452.989h-7.583v-7.378zm11.869 17.27a3.84 3.84 0 0 1-.783 1.216 3.503 3.503 0 0 1-1.174.804 3.711 3.711 0 0 1-1.463.288h-8.449v-7.707h8.737c.495 0 .948.104 1.36.31.412.206.769.487 1.071.845.302.357.542.776.722 1.257.178.481.268.982.268 1.504 0 .521-.097 1.016-.289 1.483z"/></svg>