<svg xmlns="http://www.w3.org/2000/svg" width="369.819" height="369.819"><path d="M7.392 0H73.29v369.819H49.081V24.205H7.392V0zm355.029 72.277v148.775l-28.58 27.727h-.252v-37.308h-8.315v37.308h-21.688v-73.62h-85.73v-71.61h-76.654v79.886h76.654v-.205h77.661v65.549h-31.269v-37.308h-8.064v37.308h-22.448v-37.308h-8.064v37.308h-24.965v-37.308h-8.064v37.308h-14.626V233.15h-66.063v15.628h-18.49V53.792h245.085c24.881 0 23.872 18.485 23.872 18.485zm-51.776 31.266h-48.409v48.419h48.409v-48.419zm-6.956 6.395H268.45v35.24h35.239v-35.24zm-90.506 18.574v-3.278h-6.117v-10.993h-56.082v10.993h-6.124v3.278h6.124v7.571h-6.124v3.277h6.124v8.219h-6.124v3.278h6.124v6.555h-6.124v3.278h6.124v9.639h56.082v-9.639h6.117v-3.278h-6.117v-6.555h6.117v-3.278h-6.117v-8.224h6.117v-3.278h-6.117v-7.571h6.117v.006zm42.782 178.27h-14.228v-14.709h-4.552v-16.809h-11.21v16.809h-4.552v14.709h-14.228v5.603h-54.279v11.207h54.279v3.502h48.769v-3.502h44.039v-11.207h-44.039v-5.603z"/></svg>