<svg height="480pt" viewBox="-96 0 480 480" width="480pt" xmlns="http://www.w3.org/2000/svg"><path d="m40 232h208v48h-208zm0 0" fill="#78b9eb"/><path d="m40 152h208v48h-208zm0 0" fill="#78b9eb"/><path d="m40 72h208v48h-208zm0 0" fill="#78b9eb"/><path d="m168 336c0 13.253906-10.746094 24-24 24s-24-10.746094-24-24 10.746094-24 24-24 24 10.746094 24 24zm0 0" fill="#78b9eb"/><g fill="#1a6fb0"><path d="m264 0h-240c-13.253906 0-24 10.746094-24 24v448c0 4.417969 3.582031 8 8 8h272c4.417969 0 8-3.582031 8-8v-448c0-13.253906-10.746094-24-24-24zm8 464h-256v-440c0-4.417969 3.582031-8 8-8h240c4.417969 0 8 3.582031 8 8zm0 0"/><path d="m248 224h-208c-4.417969 0-8 3.582031-8 8v48c0 4.417969 3.582031 8 8 8h208c4.417969 0 8-3.582031 8-8v-48c0-4.417969-3.582031-8-8-8zm-8 48h-192v-32h192zm0 0"/><path d="m248 144h-208c-4.417969 0-8 3.582031-8 8v48c0 4.417969 3.582031 8 8 8h208c4.417969 0 8-3.582031 8-8v-48c0-4.417969-3.582031-8-8-8zm-8 48h-192v-32h192zm0 0"/><path d="m248 64h-208c-4.417969 0-8 3.582031-8 8v48c0 4.417969 3.582031 8 8 8h208c4.417969 0 8-3.582031 8-8v-48c0-4.417969-3.582031-8-8-8zm-8 48h-192v-32h192zm0 0"/><path d="m56 168h176v16h-176zm0 0"/><path d="m56 88h176v16h-176zm0 0"/><path d="m56 248h176v16h-176zm0 0"/><path d="m240 32h16v16h-16zm0 0"/><path d="m216 32h16v16h-16zm0 0"/><path d="m192 32h16v16h-16zm0 0"/><path d="m144 304c-17.671875 0-32 14.328125-32 32s14.328125 32 32 32 32-14.328125 32-32-14.328125-32-32-32zm0 48c-8.835938 0-16-7.164062-16-16s7.164062-16 16-16 16 7.164062 16 16-7.164062 16-16 16zm0 0"/><path d="m128 384h32v16h-32zm0 0"/><path d="m128 408h32v16h-32zm0 0"/><path d="m128 432h32v16h-32zm0 0"/></g></svg>