<svg height="480pt" viewBox="0 -128 480 480" width="480pt" xmlns="http://www.w3.org/2000/svg"><path d="m448 80c0 8.835938-7.164062 16-16 16s-16-7.164062-16-16 7.164062-16 16-16 16 7.164062 16 16zm0 0" fill="#78b9eb"/><path d="m40 88h48v48h-48zm0 0" fill="#78b9eb"/><path d="m112 88h48v48h-48zm0 0" fill="#78b9eb"/><path d="m184 88h48v48h-48zm0 0" fill="#78b9eb"/><path d="m256 88h48v48h-48zm0 0" fill="#78b9eb"/><path d="m328 88h48v48h-48zm0 0" fill="#78b9eb"/><g fill="#1a6fb0"><path d="m456 0h-432c-13.253906 0-24 10.746094-24 24v144c0 13.253906 10.746094 24 24 24h25.753906l6.484375 25.9375c.890625 3.5625 4.089844 6.0625 7.761719 6.0625h32c3.671875 0 6.871094-2.5 7.761719-6.0625l6.484375-25.9375h259.507812l6.484375 25.9375c.890625 3.5625 4.089844 6.0625 7.761719 6.0625h32c3.671875 0 6.871094-2.5 7.761719-6.0625l6.484375-25.9375h25.753906c13.253906 0 24-10.746094 24-24v-144c0-13.253906-10.746094-24-24-24zm-366.246094 208h-19.507812l-4-16h27.507812zm320 0h-19.507812l-4-16h27.507812zm54.246094-40c0 4.417969-3.582031 8-8 8h-432c-4.417969 0-8-3.582031-8-8v-144c0-4.417969 3.582031-8 8-8h432c4.417969 0 8 3.582031 8 8zm0 0"/><path d="m416 32h32v16h-32zm0 0"/><path d="m432 56c-13.253906 0-24 10.746094-24 24s10.746094 24 24 24 24-10.746094 24-24-10.746094-24-24-24zm0 32c-4.417969 0-8-3.582031-8-8s3.582031-8 8-8 8 3.582031 8 8-3.582031 8-8 8zm0 0"/><path d="m88 80h-48c-4.417969 0-8 3.582031-8 8v48c0 4.417969 3.582031 8 8 8h48c4.417969 0 8-3.582031 8-8v-48c0-4.417969-3.582031-8-8-8zm-8 48h-32v-32h32zm0 0"/><path d="m160 80h-48c-4.417969 0-8 3.582031-8 8v48c0 4.417969 3.582031 8 8 8h48c4.417969 0 8-3.582031 8-8v-48c0-4.417969-3.582031-8-8-8zm-8 48h-32v-32h32zm0 0"/><path d="m232 80h-48c-4.417969 0-8 3.582031-8 8v48c0 4.417969 3.582031 8 8 8h48c4.417969 0 8-3.582031 8-8v-48c0-4.417969-3.582031-8-8-8zm-8 48h-32v-32h32zm0 0"/><path d="m304 80h-48c-4.417969 0-8 3.582031-8 8v48c0 4.417969 3.582031 8 8 8h48c4.417969 0 8-3.582031 8-8v-48c0-4.417969-3.582031-8-8-8zm-8 48h-32v-32h32zm0 0"/><path d="m376 80h-48c-4.417969 0-8 3.582031-8 8v48c0 4.417969 3.582031 8 8 8h48c4.417969 0 8-3.582031 8-8v-48c0-4.417969-3.582031-8-8-8zm-8 48h-32v-32h32zm0 0"/></g></svg>