<svg height="480pt" viewBox="-104 0 480 480" width="480pt" xmlns="http://www.w3.org/2000/svg"><path d="m136 152c-8.835938 0-16 7.164062-16 16v32c0 8.835938 7.164062 16 16 16s16-7.164062 16-16v-32c0-8.835938-7.164062-16-16-16zm0 0" fill="#78b9eb"/><g fill="#1a6fb0"><path d="m144 80.40625v-12.40625c0-15.464844-12.535156-28-28-28h-88c-6.628906 0-12-5.371094-12-12s5.371094-12 12-12h236v-16h-236c-15.464844 0-28 12.535156-28 28s12.535156 28 28 28h88c6.628906 0 12 5.371094 12 12v12.40625c-71.800781 4.261719-127.882812 63.667969-128 135.59375v128c0 75.109375 60.890625 136 136 136s136-60.890625 136-136v-128c-.117188-71.925781-56.199219-131.332031-128-135.59375zm112 263.59375c0 66.273438-53.726562 120-120 120s-120-53.726562-120-120v-128c0-66.273438 53.726562-120 120-120s120 53.726562 120 120zm0 0"/><path d="m136 144c-13.253906 0-24 10.746094-24 24v32c.042969 10.132812 6.445312 19.148438 16 22.527344v41.472656h16v-41.472656c9.554688-3.378906 15.957031-12.394532 16-22.527344v-32c0-13.253906-10.746094-24-24-24zm8 56c0 4.417969-3.582031 8-8 8s-8-3.582031-8-8v-32c0-4.417969 3.582031-8 8-8s8 3.582031 8 8zm0 0"/></g></svg>