<svg height="480pt" viewBox="0 -19 480 479" width="480pt" xmlns="http://www.w3.org/2000/svg"><path d="m248 128.5h192v144h-192zm0 0" fill="#78b9eb"/><path d="m16 80.5h32v64h-32zm0 0" fill="#78b9eb"/><path d="m16 168.5h32v64h-32zm0 0" fill="#78b9eb"/><path d="m80 88.5h80v48h-80zm0 0" fill="#78b9eb"/><path d="m80 176.5h80v48h-80zm0 0" fill="#78b9eb"/><path d="m80 264.5h80v48h-80zm0 0" fill="#78b9eb"/><g fill="#1a6fb0"><path d="m456 48.5h-400v-40c0-4.417969-3.582031-8-8-8h-48v16h40v56h-24c-4.417969 0-8 3.582031-8 8v64c0 4.417969 3.582031 8 8 8h24v8h-24c-4.417969 0-8 3.582031-8 8v64c0 4.417969 3.582031 8 8 8h24v200h16v-88h400c13.253906 0 24-10.746094 24-24v-256c0-13.253906-10.746094-24-24-24zm-432 88v-48h16v48zm0 88v-48h16v48zm440 104c0 4.417969-3.582031 8-8 8h-400v-272h400c4.417969 0 8 3.582031 8 8zm0 0"/><path d="m440 120.5h-192c-4.417969 0-8 3.582031-8 8v144c0 4.417969 3.582031 8 8 8h192c4.417969 0 8-3.582031 8-8v-144c0-4.417969-3.582031-8-8-8zm-8 144h-176v-128h176zm0 0"/><path d="m288 248.5h24v-48c0-4.417969-3.582031-8-8-8h-16v16h8v24h-8c-4.417969 0-8-3.582031-8-8v-48c0-4.417969 3.582031-8 8-8h24v-16h-24c-13.253906 0-24 10.746094-24 24v48c0 13.253906 10.746094 24 24 24zm0 0"/><path d="m400 248.5c13.253906 0 24-10.746094 24-24v-72h-16v72c0 4.417969-3.582031 8-8 8s-8-3.582031-8-8v-72h-16v72c0 13.253906 10.746094 24 24 24zm0 0"/><path d="m336 208.5h24c4.417969 0 8-3.582031 8-8v-40c0-4.417969-3.582031-8-8-8h-32c-4.417969 0-8 3.582031-8 8v88h16zm0-40h16v24h-16zm0 0"/><path d="m160 80.5h-80c-4.417969 0-8 3.582031-8 8v48c0 4.417969 3.582031 8 8 8h80c4.417969 0 8-3.582031 8-8v-48c0-4.417969-3.582031-8-8-8zm-8 48h-64v-32h64zm0 0"/><path d="m160 168.5h-80c-4.417969 0-8 3.582031-8 8v48c0 4.417969 3.582031 8 8 8h80c4.417969 0 8-3.582031 8-8v-48c0-4.417969-3.582031-8-8-8zm-8 48h-64v-32h64zm0 0"/><path d="m160 256.5h-80c-4.417969 0-8 3.582031-8 8v48c0 4.417969 3.582031 8 8 8h80c4.417969 0 8-3.582031 8-8v-48c0-4.417969-3.582031-8-8-8zm-8 48h-64v-32h64zm0 0"/><path d="m176 88.5h16v32h-16zm0 0"/><path d="m176 136.5h16v32h-16zm0 0"/><path d="m176 184.5h16v32h-16zm0 0"/><path d="m176 232.5h16v32h-16zm0 0"/><path d="m176 280.5h16v32h-16zm0 0"/><path d="m104 104.5h32v16h-32zm0 0"/><path d="m104 192.5h32v16h-32zm0 0"/><path d="m104 280.5h32v16h-32zm0 0"/><path d="m200 80.5h16v16h-16zm0 0"/><path d="m200 112.5h16v16h-16zm0 0"/><path d="m200 144.5h16v16h-16zm0 0"/><path d="m200 176.5h16v16h-16zm0 0"/><path d="m200 208.5h16v16h-16zm0 0"/><path d="m200 240.5h16v16h-16zm0 0"/><path d="m200 272.5h16v16h-16zm0 0"/><path d="m200 304.5h16v16h-16zm0 0"/></g></svg>