<svg height="480pt" viewBox="-116 0 480 480" width="480pt" xmlns="http://www.w3.org/2000/svg"><g fill="#78b9eb"><path d="m136 376h-32v32h32zm0 0"/><path d="m200 24c0-8.835938-7.164062-16-16-16s-16 7.164062-16 16v104h32zm0 0"/><path d="m72 24c0-8.835938-7.164062-16-16-16s-16 7.164062-16 16v104h32zm0 0"/><path d="m176 208h-56l48-48h-80l-24 48h32l-24 32h40l-24 72zm0 0"/></g><path d="m40 464c-4.417969 0-8-3.582031-8-8s3.582031-8 8-8h64c13.253906 0 24-10.746094 24-24v-8h8c4.417969 0 8-3.582031 8-8v-24h16c4.417969 0 8-3.582031 8-8v-24h48c13.253906 0 24-10.746094 24-24v-184c0-13.253906-10.746094-24-24-24h-8v-96c0-13.253906-10.746094-24-24-24s-24 10.746094-24 24v96h-80v-96c0-13.253906-10.746094-24-24-24s-24 10.746094-24 24v96h-8c-13.253906 0-24 10.746094-24 24v184c0 13.253906 10.746094 24 24 24h48v24c0 4.417969 3.582031 8 8 8h16v24c0 4.417969 3.582031 8 8 8h8v8c0 4.417969-3.582031 8-8 8h-64c-13.253906 0-24 10.746094-24 24s10.746094 24 24 24h208v-16zm136-440c0-4.417969 3.582031-8 8-8s8 3.582031 8 8v96h-16zm-128 0c0-4.417969 3.582031-8 8-8s8 3.582031 8 8v96h-16zm-32 304v-184c0-4.417969 3.582031-8 8-8h192c4.417969 0 8 3.582031 8 8v184c0 4.417969-3.582031 8-8 8h-192c-4.417969 0-8-3.582031-8-8zm72 24h64v16h-64zm40 32v16h-16v-16zm0 0" fill="#1a6fb0"/><path d="m80.40625 309.472656c-1.210938 3.636719.332031 7.621094 3.671875 9.5 3.34375 1.878906 7.546875 1.121094 10.027344-1.804687l88-104c2.011719-2.378907 2.460937-5.707031 1.148437-8.53125-1.308594-2.828125-4.140625-4.636719-7.253906-4.636719h-36.6875l34.34375-34.34375c2.285156-2.289062 2.972656-5.730469 1.734375-8.71875s-4.15625-4.9375-7.390625-4.9375h-80c-3.03125 0-5.804688 1.710938-7.160156 4.425781l-24 48c-1.238282 2.480469-1.105469 5.425781.351562 7.78125 1.460938 2.359375 4.035156 3.792969 6.808594 3.792969h16l-14.398438 19.199219c-1.820312 2.425781-2.113281 5.667969-.757812 8.378906s4.125 4.421875 7.15625 4.421875h28.902344zm7.59375-77.472656 14.398438-19.199219c1.820312-2.425781 2.113281-5.667969.757812-8.378906s-4.125-4.421875-7.15625-4.421875h-19.054688l16-32h55.742188l-34.34375 34.34375c-2.285156 2.289062-2.972656 5.730469-1.734375 8.71875s4.15625 4.9375 7.390625 4.9375h38.753906l-50.027344 59.121094 10.867188-32.59375c.8125-2.4375.402344-5.121094-1.101562-7.207032-1.503907-2.085937-3.921876-3.320312-6.492188-3.320312zm0 0" fill="#1a6fb0"/></svg>