<svg height="480pt" viewBox="0 -80 480 480" width="480pt" xmlns="http://www.w3.org/2000/svg"><path d="m40 40h32v192h-32zm0 0" fill="#78b9eb"/><path d="m96 40h32v192h-32zm0 0" fill="#78b9eb"/><path d="m152 40h32v192h-32zm0 0" fill="#78b9eb"/><path d="m248 72h192v144h-192zm0 0" fill="#78b9eb"/><path d="m72 272c0 8.835938-7.164062 16-16 16s-16-7.164062-16-16 7.164062-16 16-16 16 7.164062 16 16zm0 0" fill="#78b9eb"/><path d="m128 272c0 8.835938-7.164062 16-16 16s-16-7.164062-16-16 7.164062-16 16-16 16 7.164062 16 16zm0 0" fill="#78b9eb"/><path d="m184 272c0 8.835938-7.164062 16-16 16s-16-7.164062-16-16 7.164062-16 16-16 16 7.164062 16 16zm0 0" fill="#78b9eb"/><path d="m328 256c0 8.835938-7.164062 16-16 16s-16-7.164062-16-16 7.164062-16 16-16 16 7.164062 16 16zm0 0" fill="#78b9eb"/><path d="m384 256c0 8.835938-7.164062 16-16 16s-16-7.164062-16-16 7.164062-16 16-16 16 7.164062 16 16zm0 0" fill="#78b9eb"/><path d="m440 256c0 8.835938-7.164062 16-16 16s-16-7.164062-16-16 7.164062-16 16-16 16 7.164062 16 16zm0 0" fill="#78b9eb"/><path d="m216 240h48v48h-48zm0 0" fill="#78b9eb"/><g fill="#1a6fb0"><path d="m472 0h-464c-4.417969 0-8 3.582031-8 8v304c0 4.417969 3.582031 8 8 8h464c4.417969 0 8-3.582031 8-8v-304c0-4.417969-3.582031-8-8-8zm-8 304h-448v-288h448zm0 0"/><path d="m40 240h32c4.417969 0 8-3.582031 8-8v-192c0-4.417969-3.582031-8-8-8h-32c-4.417969 0-8 3.582031-8 8v192c0 4.417969 3.582031 8 8 8zm8-192h16v176h-16zm0 0"/><path d="m96 240h32c4.417969 0 8-3.582031 8-8v-192c0-4.417969-3.582031-8-8-8h-32c-4.417969 0-8 3.582031-8 8v192c0 4.417969 3.582031 8 8 8zm8-192h16v176h-16zm0 0"/><path d="m152 240h32c4.417969 0 8-3.582031 8-8v-192c0-4.417969-3.582031-8-8-8h-32c-4.417969 0-8 3.582031-8 8v192c0 4.417969 3.582031 8 8 8zm8-192h16v176h-16zm0 0"/><path d="m240 216c0 4.417969 3.582031 8 8 8h192c4.417969 0 8-3.582031 8-8v-144c0-4.417969-3.582031-8-8-8h-192c-4.417969 0-8 3.582031-8 8zm16-136h176v128h-176zm0 0"/><path d="m224 48h16v-16h-32v32h16zm0 0"/><path d="m208 72h16v32h-16zm0 0"/><path d="m208 112h16v32h-16zm0 0"/><path d="m208 152h16v32h-16zm0 0"/><path d="m208 192h16v32h-16zm0 0"/><path d="m256 32h32v16h-32zm0 0"/><path d="m296 32h32v16h-32zm0 0"/><path d="m336 32h32v16h-32zm0 0"/><path d="m376 32h32v16h-32zm0 0"/><path d="m416 32h32v16h-32zm0 0"/><path d="m56 296c13.253906 0 24-10.746094 24-24s-10.746094-24-24-24-24 10.746094-24 24 10.746094 24 24 24zm0-32c4.417969 0 8 3.582031 8 8s-3.582031 8-8 8-8-3.582031-8-8 3.582031-8 8-8zm0 0"/><path d="m112 296c13.253906 0 24-10.746094 24-24s-10.746094-24-24-24-24 10.746094-24 24 10.746094 24 24 24zm0-32c4.417969 0 8 3.582031 8 8s-3.582031 8-8 8-8-3.582031-8-8 3.582031-8 8-8zm0 0"/><path d="m168 296c13.253906 0 24-10.746094 24-24s-10.746094-24-24-24-24 10.746094-24 24 10.746094 24 24 24zm0-32c4.417969 0 8 3.582031 8 8s-3.582031 8-8 8-8-3.582031-8-8 3.582031-8 8-8zm0 0"/><path d="m312 232c-13.253906 0-24 10.746094-24 24s10.746094 24 24 24 24-10.746094 24-24-10.746094-24-24-24zm0 32c-4.417969 0-8-3.582031-8-8s3.582031-8 8-8 8 3.582031 8 8-3.582031 8-8 8zm0 0"/><path d="m368 232c-13.253906 0-24 10.746094-24 24s10.746094 24 24 24 24-10.746094 24-24-10.746094-24-24-24zm0 32c-4.417969 0-8-3.582031-8-8s3.582031-8 8-8 8 3.582031 8 8-3.582031 8-8 8zm0 0"/><path d="m424 232c-13.253906 0-24 10.746094-24 24s10.746094 24 24 24 24-10.746094 24-24-10.746094-24-24-24zm0 32c-4.417969 0-8-3.582031-8-8s3.582031-8 8-8 8 3.582031 8 8-3.582031 8-8 8zm0 0"/><path d="m216 296h48c4.417969 0 8-3.582031 8-8v-48c0-4.417969-3.582031-8-8-8h-48c-4.417969 0-8 3.582031-8 8v48c0 4.417969 3.582031 8 8 8zm8-48h32v32h-32zm0 0"/><path d="m264 120v48c0 13.253906 10.746094 24 24 24h24v-16h-24c-4.417969 0-8-3.582031-8-8v-48c0-4.417969 3.582031-8 8-8h24v-16h-24c-13.253906 0-24 10.746094-24 24zm0 0"/><path d="m408 168c0 4.417969-3.582031 8-8 8s-8-3.582031-8-8v-72h-16v72c0 13.253906 10.746094 24 24 24s24-10.746094 24-24v-72h-16zm0 0"/><path d="m360 96h-32c-4.417969 0-8 3.582031-8 8v88h16v-40h24c4.417969 0 8-3.582031 8-8v-40c0-4.417969-3.582031-8-8-8zm-8 40h-16v-24h16zm0 0"/></g></svg>